<svg xmlns="http://www.w3.org/2000/svg" width="600" height="600" viewBox="0 0 600 600" version="1.1"><path d="" stroke="none" fill="#080404" fill-rule="evenodd"/><path d="M 144 184.500 L 144 192 316 192 L 488 192 488 282.500 L 488 373 495.500 373 L 503 373 503 275 L 503 177 323.500 177 L 144 177 144 184.500 M 119 209.500 L 119 217 291 217 L 463 217 463 307.500 L 463 398 470.500 398 L 478 398 478 300 L 478 202 298.500 202 L 119 202 119 209.500 M 101 321.497 L 101 416 277.005 416 L 453.010 416 452.755 321.750 L 452.500 227.500 276.750 227.247 L 101 226.994 101 321.497 M 116 321.500 L 116 400 276.500 400 L 437 400 437 321.500 L 437 243 276.500 243 L 116 243 116 321.500 M 125 321.485 L 125 391.970 186 392.235 C 219.550 392.381, 247 392.217, 247 391.871 C 247 391.526, 245.609 390.666, 243.909 389.962 C 238.851 387.867, 229.225 381.290, 223.812 376.231 C 214.006 367.067, 206.206 353.856, 202.385 339.942 C 199.696 330.152, 199.913 311.841, 202.840 301.557 C 206.185 289.799, 212.185 279.075, 220.249 270.440 C 226.739 263.490, 240.812 253, 243.645 253 C 244.325 253, 245.160 252.550, 245.500 252 C 245.909 251.338, 225.677 251, 185.559 251 L 125 251 125 321.485 M 305.094 251.428 C 305.330 251.663, 308.177 253.252, 311.421 254.959 C 330.290 264.884, 345.048 284.582, 349.558 305.862 C 352.476 319.629, 350.658 338.316, 345.151 351.151 C 341.515 359.626, 335.047 368.701, 327.600 375.775 C 320.743 382.288, 311.101 388.881, 306.119 390.462 C 304.938 390.837, 304.159 391.449, 304.390 391.822 C 304.620 392.195, 332.752 392.381, 366.904 392.235 L 429 391.970 429 321.485 L 429 251 366.833 251 C 332.642 251, 304.859 251.192, 305.094 251.428 M 269.514 266.202 C 269.262 266.916, 268.930 269.888, 268.777 272.807 L 268.500 278.113 262.600 280.506 C 255.887 283.228, 250.744 287.716, 247.811 293.409 C 246.197 296.541, 245.870 298.761, 246.164 304.585 C 246.484 310.906, 246.931 312.352, 249.598 315.677 C 253.459 320.491, 261.070 325.121, 271.750 329.152 C 285.708 334.420, 289.104 341.792, 279.792 346.608 C 275.229 348.967, 263.366 348.084, 255.257 344.781 L 249.013 342.238 248.007 346.119 C 247.453 348.253, 246.530 351.810, 245.955 354.023 C 245.381 356.236, 245.175 358.474, 245.497 358.996 C 246.251 360.215, 257.088 363.532, 263.250 364.430 L 268 365.123 268 371.561 L 268 378 275 378 L 282 378 282 370.969 C 282 366.197, 282.402 363.825, 283.250 363.587 C 290.926 361.433, 293.785 360.061, 297.607 356.696 C 303.993 351.076, 306.368 345.982, 306.327 337.997 C 306.262 325.594, 299.990 318.294, 284.334 312.401 C 270.147 307.061, 266.047 303.637, 267.926 298.696 C 268.464 297.280, 269.796 295.644, 270.886 295.061 C 274.331 293.217, 286.375 293.794, 292.531 296.098 C 295.615 297.251, 298.301 298.032, 298.500 297.833 C 298.699 297.634, 299.789 294.126, 300.922 290.039 C 302.525 284.253, 302.707 282.428, 301.741 281.800 C 299.333 280.233, 290.590 278, 286.866 278 L 283.095 278 282.798 271.750 L 282.500 265.500 276.237 265.202 C 271.787 264.990, 269.841 265.280, 269.514 266.202" stroke="none" fill="#040404" fill-rule="evenodd"/></svg>